<svg width="179" height="80" viewBox="0 0 179 80" fill="none" xmlns="http://www.w3.org/2000/svg">
<path fill-rule="evenodd" clip-rule="evenodd" d="M56.8934 48.2729L58.2046 48.2344L62.7687 65.9499L66.0584 58.2325L69.3243 63.8468H82.8689V65.1577H68.5424L66.2447 61.2078L62.4535 70.1018L57.6476 51.4477L52.1439 79.9765L50.8291 79.9998L46.0264 59.2873L43.8637 65.1577H1V63.8468H42.9194L46.3202 54.6159L51.4237 76.6258L56.8934 48.2729Z" fill="#0F1628" stroke="#0F1628" stroke-width="0.3"/>
<path d="M16.3045 7.40665V15.8405H15.3962C14.6988 13.1914 13.7997 11.3893 12.6986 10.4342C11.6159 9.47907 10.2304 9.00151 8.54216 9.00151C7.25761 9.00151 6.22079 9.3349 5.43171 10.0017C4.64263 10.6685 4.24809 11.4073 4.24809 12.2183C4.24809 13.2274 4.5417 14.0925 5.12892 14.8133C5.6978 15.5522 6.85389 16.3361 8.59722 17.165L12.616 19.0843C16.3412 20.8684 18.2038 23.2201 18.2038 26.1395C18.2038 28.3922 17.3322 30.2123 15.5889 31.5999C13.8639 32.9695 11.9279 33.6543 9.78084 33.6543C8.23938 33.6543 6.4777 33.384 4.49582 32.8434C3.89025 32.6631 3.39477 32.573 3.00941 32.573C2.58734 32.573 2.25703 32.8073 2.01847 33.2759H1.1101V24.4365H2.01847C2.53229 26.9595 3.51406 28.8607 4.96377 30.1402C6.41348 31.4197 8.03752 32.0594 9.83589 32.0594C11.1021 32.0594 12.1297 31.699 12.9188 30.9782C13.7263 30.2393 14.13 29.3563 14.13 28.3291C14.13 27.0856 13.6804 26.0404 12.7812 25.1934C11.9004 24.3464 10.1295 23.2742 7.46865 21.9767C4.80778 20.6792 3.06446 19.5078 2.23868 18.4626C1.41289 17.4354 1 16.1378 1 14.57C1 12.5336 1.7065 10.8306 3.11951 9.46105C4.55087 8.09145 6.39513 7.40665 8.65227 7.40665C9.64321 7.40665 10.8452 7.61389 12.2582 8.02838C13.1941 8.29869 13.818 8.43385 14.13 8.43385C14.4236 8.43385 14.653 8.37078 14.8181 8.24463C14.9833 8.11848 15.176 7.83916 15.3962 7.40665H16.3045Z" fill="#0F1628"/>
<path d="M29.462 12.6778C31.2971 10.8757 32.3798 9.83949 32.7101 9.56918C33.5359 8.88438 34.4259 8.35275 35.3802 7.97431C36.3344 7.59587 37.2795 7.40665 38.2154 7.40665C39.7935 7.40665 41.1515 7.85718 42.2892 8.75823C43.427 9.65928 44.1885 10.9658 44.5739 12.6778C46.464 10.5153 48.0605 9.10063 49.3634 8.43385C50.6663 7.74905 52.006 7.40665 53.3823 7.40665C54.7219 7.40665 55.9055 7.74905 56.9331 8.43385C57.9791 9.10063 58.8049 10.1999 59.4105 11.7317C59.8142 12.7769 60.0161 14.4168 60.0161 16.6514V27.3019C60.0161 28.8517 60.1353 29.9149 60.3739 30.4916C60.5574 30.8881 60.8969 31.2305 61.3924 31.5188C61.8878 31.7891 62.6953 31.9243 63.8147 31.9243V32.8974H51.3729V31.9243H51.8959C52.9785 31.9243 53.8227 31.717 54.4283 31.3026C54.8503 31.0142 55.1531 30.5547 55.3366 29.9239C55.41 29.6176 55.4467 28.7436 55.4467 27.3019V16.6514C55.4467 14.6331 55.199 13.2094 54.7035 12.3805C53.9878 11.2271 52.8409 10.6504 51.2627 10.6504C50.2902 10.6504 49.3084 10.8937 48.3175 11.3803C47.3449 11.8488 46.1612 12.7319 44.7666 14.0294L44.7115 14.3267L44.7666 15.4891V27.3019C44.7666 28.9959 44.8583 30.0501 45.0418 30.4646C45.2437 30.8791 45.6107 31.2305 46.1429 31.5188C46.6751 31.7891 47.5834 31.9243 48.868 31.9243V32.8974H36.1234V31.9243C37.518 31.9243 38.4723 31.7621 38.9861 31.4377C39.5183 31.1133 39.8853 30.6268 40.0871 29.978C40.1789 29.6717 40.2248 28.7796 40.2248 27.3019V16.6514C40.2248 14.6331 39.922 13.1824 39.3164 12.2994C38.509 11.146 37.3804 10.5693 35.9307 10.5693C34.9397 10.5693 33.958 10.8306 32.9854 11.3533C31.4623 12.1462 30.2878 13.0382 29.462 14.0294V27.3019C29.462 28.9238 29.5721 29.978 29.7924 30.4646C30.0309 30.9511 30.3704 31.3206 30.8108 31.5729C31.2696 31.8071 32.1871 31.9243 33.5634 31.9243V32.8974H21.0941V31.9243C22.2502 31.9243 23.0576 31.8071 23.5164 31.5729C23.9752 31.3206 24.3238 30.9331 24.5624 30.4105C24.8009 29.8699 24.9202 28.8337 24.9202 27.3019V17.8408C24.9202 15.1197 24.8376 13.3626 24.6725 12.5697C24.544 11.975 24.3422 11.5695 24.0669 11.3533C23.7917 11.119 23.4155 11.0018 22.9383 11.0018C22.4245 11.0018 21.8098 11.137 21.0941 11.4073L20.6812 10.4342L28.2784 7.40665H29.462V12.6778Z" fill="#0F1628"/>
<path d="M64.4202 8.1365H76.1739V9.13667H75.5959C74.7701 9.13667 74.1462 9.31688 73.7241 9.6773C73.3204 10.0197 73.1185 10.4522 73.1185 10.9748C73.1185 11.6776 73.4213 12.6508 74.0269 13.8942L80.1652 26.3828L85.8081 12.7048C86.12 11.966 86.276 11.2361 86.276 10.5153C86.276 10.1909 86.2118 9.94762 86.0833 9.78543C85.9365 9.5872 85.7071 9.43402 85.3952 9.32589C85.0832 9.19974 84.5327 9.13667 83.7436 9.13667V8.1365H91.9464V9.13667C91.2674 9.20875 90.7444 9.35292 90.3774 9.56918C90.0104 9.78543 89.6067 10.1909 89.1663 10.7856C89.0011 11.0379 88.6891 11.7317 88.2304 12.867L77.9631 37.5739C76.9722 39.9707 75.6693 41.7818 74.0544 43.0072C72.4579 44.2327 70.9164 44.8454 69.43 44.8454C68.3473 44.8454 67.4573 44.539 66.76 43.9263C66.0626 43.3136 65.714 42.6108 65.714 41.8178C65.714 41.061 65.9617 40.4482 66.4572 39.9797C66.971 39.5292 67.6683 39.3039 68.5492 39.3039C69.1547 39.3039 69.9805 39.5021 71.0265 39.8986C71.7606 40.1689 72.2193 40.3041 72.4028 40.3041C72.9534 40.3041 73.5498 40.0247 74.192 39.4661C74.8527 38.9074 75.5133 37.8262 76.1739 36.2223L77.9631 31.9243L68.907 13.2455C68.6318 12.6868 68.1913 11.993 67.5858 11.164C67.127 10.5333 66.7508 10.1098 66.4572 9.89355C66.0351 9.60522 65.3561 9.35292 64.4202 9.13667V8.1365Z" fill="#0F1628"/>
<path d="M101.36 0V8.1365H107.251V10.0287H101.36V26.0855C101.36 27.6893 101.59 28.7706 102.048 29.3293C102.526 29.8879 103.131 30.1672 103.865 30.1672C104.471 30.1672 105.058 29.987 105.627 29.6266C106.196 29.2482 106.636 28.6985 106.948 27.9777H108.022C107.379 29.7437 106.471 31.0773 105.297 31.9783C104.122 32.8614 102.911 33.3029 101.663 33.3029C100.819 33.3029 99.9932 33.0776 99.1858 32.6271C98.3783 32.1586 97.7819 31.5008 97.3966 30.6538C97.0112 29.7888 96.8185 28.4642 96.8185 26.6802V10.0287H92.8272V9.13667C93.8365 8.74021 94.8642 8.07343 95.9102 7.13633C96.9745 6.18122 97.9196 5.0549 98.7454 3.75739C99.1674 3.07259 99.7546 1.82013 100.507 0H101.36Z" fill="#0F1628"/>
<path d="M117.05 0V8.1365H122.941V10.0287H117.05V26.0855C117.05 27.6893 117.28 28.7706 117.738 29.3293C118.216 29.8879 118.821 30.1672 119.555 30.1672C120.161 30.1672 120.748 29.987 121.317 29.6266C121.886 29.2482 122.326 28.6985 122.638 27.9777H123.712C123.069 29.7437 122.161 31.0773 120.986 31.9783C119.812 32.8614 118.601 33.3029 117.353 33.3029C116.509 33.3029 115.683 33.0776 114.876 32.6271C114.068 32.1586 113.472 31.5008 113.086 30.6538C112.701 29.7888 112.508 28.4642 112.508 26.6802V10.0287H108.517V9.13667C109.526 8.74021 110.554 8.07343 111.6 7.13633C112.664 6.18122 113.609 5.0549 114.435 3.75739C114.857 3.07259 115.445 1.82013 116.197 0H117.05Z" fill="#0F1628"/>
<path d="M129.657 17.4624C129.639 21.1387 130.547 24.0221 132.382 26.1125C134.217 28.2029 136.374 29.2482 138.851 29.2482C140.503 29.2482 141.934 28.8066 143.145 27.9236C144.375 27.0226 145.402 25.4908 146.228 23.3282L147.081 23.8689C146.696 26.3378 145.577 28.5904 143.723 30.6268C141.87 32.6451 139.548 33.6543 136.759 33.6543C133.731 33.6543 131.134 32.501 128.969 30.1943C126.822 27.8695 125.749 24.7519 125.749 20.8413C125.749 16.6064 126.85 13.3085 129.052 10.9478C131.272 8.56901 134.052 7.37962 137.392 7.37962C140.218 7.37962 142.539 8.29869 144.356 10.1368C146.173 11.957 147.081 14.3988 147.081 17.4624H129.657ZM129.657 15.8946H141.328C141.237 14.3087 141.044 13.1914 140.75 12.5426C140.291 11.5335 139.603 10.7405 138.686 10.1639C137.787 9.5872 136.842 9.29886 135.851 9.29886C134.327 9.29886 132.96 9.88454 131.749 11.0559C130.556 12.2093 129.859 13.8221 129.657 15.8946Z" fill="#0F1628"/>
<path d="M157.816 12.6508C160.771 9.15469 163.588 7.40665 166.267 7.40665C167.643 7.40665 168.827 7.74905 169.818 8.43385C170.809 9.10063 171.598 10.2089 172.185 11.7587C172.589 12.84 172.791 14.4979 172.791 16.7325V27.3019C172.791 28.8697 172.919 29.933 173.176 30.4916C173.378 30.9421 173.699 31.2935 174.139 31.5458C174.598 31.7981 175.433 31.9243 176.644 31.9243V32.8974H164.175V31.9243H164.698C165.872 31.9243 166.689 31.7531 167.148 31.4107C167.625 31.0503 167.955 30.5277 168.139 29.8429C168.212 29.5725 168.249 28.7255 168.249 27.3019V17.165C168.249 14.9124 167.946 13.2815 167.341 12.2723C166.753 11.2451 165.753 10.7315 164.34 10.7315C162.156 10.7315 159.982 11.9029 157.816 14.2456V27.3019C157.816 28.9778 157.917 30.0141 158.119 30.4105C158.376 30.9331 158.725 31.3206 159.165 31.5729C159.624 31.8071 160.542 31.9243 161.918 31.9243V32.8974H149.449V31.9243H149.999C151.284 31.9243 152.146 31.6089 152.587 30.9782C153.045 30.3294 153.275 29.104 153.275 27.3019V18.1112C153.275 15.1377 153.201 13.3266 153.054 12.6778C152.926 12.029 152.715 11.5875 152.421 11.3533C152.146 11.119 151.77 11.0018 151.293 11.0018C150.779 11.0018 150.164 11.137 149.449 11.4073L149.036 10.4342L156.633 7.40665H157.816V12.6508Z" fill="#0F1628"/>
<path d="M88.5459 63.457V39.7935H98.4839C100.394 39.7935 102.022 40.1362 103.367 40.8218C104.711 41.4997 105.736 42.4433 106.442 43.6526C107.155 44.8543 107.512 46.2408 107.512 47.8123C107.512 49.3837 107.151 50.7702 106.429 51.9719C105.708 53.1735 104.662 54.1094 103.293 54.7796C101.932 55.4497 100.284 55.7848 98.3486 55.7848H92.0143V51.7754H97.4876C98.5125 51.7754 99.3571 51.6098 100.021 51.2786C100.694 50.9397 101.194 50.4736 101.522 49.8805C101.858 49.2797 102.026 48.5903 102.026 47.8123C102.026 47.0265 101.858 46.341 101.522 45.7556C101.194 45.1624 100.694 44.7041 100.021 44.3806C99.3489 44.0494 98.4961 43.8837 97.463 43.8837H93.8716V63.457H88.5459Z" fill="#0F1628"/>
<path d="M122.987 55.9004V45.7093H128.227V63.457H123.197V60.2333H123C122.573 61.2732 121.864 62.109 120.872 62.7406C119.888 63.3722 118.687 63.6881 117.268 63.6881C116.005 63.6881 114.894 63.4185 113.935 62.8793C112.976 62.3401 112.225 61.5736 111.684 60.5799C111.151 59.5862 110.881 58.3961 110.872 57.0096V45.7093H116.112V56.1315C116.12 57.1791 116.42 58.0071 117.01 58.6157C117.6 59.2242 118.392 59.5285 119.384 59.5285C120.015 59.5285 120.605 59.3937 121.155 59.1241C121.704 58.8468 122.147 58.4385 122.483 57.8993C122.828 57.3601 122.996 56.6938 122.987 55.9004Z" fill="#0F1628"/>
<path d="M137.658 39.7935V63.457H132.418V39.7935H137.658Z" fill="#0F1628"/>
<path d="M157.573 50.7702L152.777 51.0475C152.695 50.6623 152.518 50.3157 152.248 50.0076C151.977 49.6918 151.621 49.4414 151.178 49.2566C150.743 49.064 150.222 48.9677 149.616 48.9677C148.804 48.9677 148.119 49.1295 147.562 49.453C147.004 49.7688 146.725 50.1925 146.725 50.724C146.725 51.1476 146.906 51.5058 147.267 51.7985C147.627 52.0912 148.246 52.3262 149.124 52.5034L152.543 53.1504C154.38 53.5047 155.749 54.0748 156.651 54.8605C157.553 55.6462 158.004 56.6784 158.004 57.9571C158.004 59.1202 157.639 60.1409 156.909 61.019C156.188 61.8971 155.196 62.5827 153.933 63.0757C152.678 63.561 151.231 63.8036 149.591 63.8036C147.09 63.8036 145.098 63.3145 143.614 62.3362C142.138 61.3502 141.273 60.0099 141.018 58.3152L146.172 58.0611C146.328 58.7774 146.705 59.3243 147.303 59.7018C147.902 60.0715 148.669 60.2564 149.603 60.2564C150.522 60.2564 151.26 60.0908 151.817 59.7596C152.383 59.4206 152.67 58.9854 152.678 58.4539C152.67 58.0071 152.469 57.6412 152.076 57.3562C151.682 57.0635 151.075 56.8401 150.255 56.6861L146.984 56.0737C145.139 55.7271 143.765 55.1262 142.863 54.2712C141.97 53.4162 141.523 52.3262 141.523 51.0013C141.523 49.8612 141.851 48.8791 142.507 48.0549C143.171 47.2307 144.101 46.5952 145.299 46.1484C146.504 45.7016 147.914 45.4782 149.53 45.4782C151.916 45.4782 153.793 45.952 155.163 46.8994C156.54 47.8469 157.344 49.1372 157.573 50.7702Z" fill="#0F1628"/>
<path d="M169.913 63.8036C167.97 63.8036 166.297 63.4339 164.895 62.6944C163.501 61.9472 162.427 60.8919 161.672 59.5285C160.918 58.1573 160.541 56.5359 160.541 54.664C160.541 52.8384 160.918 51.2362 161.672 49.8574C162.427 48.4786 163.488 47.404 164.858 46.6337C166.235 45.8634 167.851 45.4782 169.704 45.4782C170.95 45.4782 172.11 45.667 173.185 46.0444C174.267 46.4142 175.21 46.9726 176.013 47.7198C176.825 48.467 177.457 49.4068 177.908 50.5391C178.358 51.6637 178.584 52.9809 178.584 54.4907V55.8426H162.632V52.7922H173.652C173.652 52.0835 173.488 51.4558 173.16 50.9088C172.832 50.3619 172.377 49.9344 171.795 49.6263C171.221 49.3105 170.552 49.1526 169.79 49.1526C168.995 49.1526 168.289 49.3259 167.674 49.6725C167.068 50.0114 166.592 50.4698 166.248 51.0475C165.903 51.6175 165.727 52.253 165.719 52.954V55.8542C165.719 56.7323 165.891 57.491 166.235 58.1304C166.588 58.7697 167.084 59.2627 167.724 59.6093C168.363 59.956 169.122 60.1293 169.999 60.1293C170.581 60.1293 171.114 60.0523 171.598 59.8982C172.082 59.7442 172.496 59.5131 172.84 59.2049C173.185 58.8968 173.447 58.5194 173.627 58.0726L178.473 58.373C178.227 59.4668 177.723 60.422 176.96 61.2385C176.206 62.0473 175.23 62.679 174.033 63.1335C172.844 63.5802 171.471 63.8036 169.913 63.8036Z" fill="#0F1628"/>
</svg>
