<svg width="20" height="20" viewBox="0 0 20 20" fill="none" xmlns="http://www.w3.org/2000/svg">
<path d="M5.30927 17.9722C5.18927 17.9722 5.06927 17.9737 4.94927 17.9717C4.87777 17.9707 4.78977 17.9837 4.77627 17.8822C4.76127 17.7712 4.86277 17.7477 4.93227 17.7352C5.14827 17.6972 5.36827 17.6792 5.58577 17.6487C7.01227 17.4507 8.38877 17.0812 9.66977 16.4097C10.4073 16.0232 11.0823 15.5487 11.5303 14.8182C11.7078 14.5287 11.8703 14.2302 11.9423 13.8932C11.9738 13.7442 12.0558 13.7002 12.2028 13.7317C12.6103 13.8202 12.6288 13.8517 12.4813 14.2712C12.1358 15.2537 11.4668 15.9597 10.5963 16.4972C9.39227 17.2407 8.06727 17.6327 6.68177 17.8477C6.22777 17.9182 5.77077 17.9712 5.30977 17.9722H5.30927Z" fill="#8369FC"/>
<path d="M15.4592 15.3542C15.5437 15.1757 15.4597 14.9762 15.5277 14.7952C15.5277 14.9817 15.5237 15.1232 15.5207 15.3097C15.5207 15.3362 15.5332 15.2727 15.4652 15.4822C15.4622 15.4912 15.4617 15.3727 15.4587 15.3542H15.4592Z" fill="#8369FC"/>
<path d="M10.8863 13.7972C10.9078 13.8382 10.8798 13.8982 10.9358 13.9257C10.9098 13.9437 10.8883 13.9867 10.8873 13.9602C10.8833 13.8622 10.8813 13.8997 10.8863 13.7972Z" fill="#8369FC"/>
<path d="M8.89081 14.4807C8.90181 14.4927 8.91281 14.5047 8.92431 14.5172C8.90881 14.5502 8.89281 14.5827 8.87231 14.6262C8.88281 14.5382 8.88281 14.5532 8.89081 14.4807Z" fill="#8369FC"/>
<path fill-rule="evenodd" clip-rule="evenodd" d="M15.7731 7.95186C15.7871 7.85578 15.8012 7.75973 15.8535 7.67369L15.8545 7.67319V6.71169C15.8312 6.59194 15.8233 6.47061 15.8155 6.34914C15.8062 6.20688 15.797 6.06445 15.763 5.92419C15.422 4.51669 14.723 3.29219 13.8535 2.15369C13.8045 2.08969 13.75 2.02869 13.654 2.05719C13.224 2.41669 12.7975 2.77969 12.41 3.18569C11.5875 4.04669 10.882 4.98719 10.519 6.13969C10.096 7.48219 10.242 8.71019 11.308 9.72769C11.3927 9.80863 11.3524 9.83446 11.2889 9.87516C11.2853 9.87745 11.2817 9.87979 11.278 9.88219C11.1334 9.9756 10.9898 10.0708 10.8463 10.1661C10.5511 10.3619 10.2559 10.5577 9.95149 10.7377C9.69099 10.8917 9.55849 11.0782 9.50399 11.3832C9.36961 12.1317 9.21749 12.8765 9.06534 13.6214C9.00689 13.9076 8.94844 14.1938 8.89099 14.4802C8.88475 14.5312 8.88854 14.5297 8.90614 14.5228C8.91112 14.5209 8.91721 14.5185 8.92449 14.5167C9.06449 14.2437 9.22749 13.9842 9.42249 13.7477C9.91199 13.1542 10.4855 12.6842 11.269 12.5432C11.492 12.5032 11.7185 12.4927 11.937 12.5767C11.6355 12.6137 11.35 12.6972 11.0715 12.8112C10.984 12.8467 10.9345 12.8927 10.932 12.9997C10.9274 13.1887 10.9147 13.3774 10.902 13.5662C10.8968 13.6432 10.8916 13.7202 10.887 13.7972C10.8976 13.8513 10.8933 13.8882 10.8907 13.9107C10.887 13.9424 10.8867 13.945 10.9365 13.9257C11.9245 13.2942 12.8405 13.4212 13.705 14.2107C13.7199 14.1249 13.7341 14.0406 13.748 13.9576C13.7807 13.7631 13.8123 13.5751 13.8505 13.3887C13.8775 13.2582 13.8345 13.1812 13.7295 13.1062C13.4925 12.9377 13.234 12.8117 12.971 12.6912C13.381 12.6887 13.743 12.8307 14.0625 13.0712C14.827 13.6472 15.2485 14.4372 15.4595 15.3547C15.512 15.4087 15.528 15.3027 15.528 15.2672C15.528 15.1655 15.523 15.0948 15.519 15.0369C15.5127 14.9479 15.5086 14.8893 15.528 14.7957C15.5334 14.6145 15.5388 14.4333 15.5442 14.2521C15.5675 13.4668 15.5909 12.6815 15.6185 11.8962C15.623 11.7602 15.592 11.6597 15.4945 11.5597C15.2783 11.338 15.0652 11.113 14.8522 10.8881C14.6572 10.6823 14.4623 10.4765 14.265 10.2732C14.168 10.1732 14.152 10.1302 14.2905 10.0512C15.06 9.61169 15.5365 8.94919 15.7485 8.08969C15.7595 8.04449 15.7663 7.99817 15.7731 7.95186ZM11.92 5.94269C11.9175 6.68769 12.505 7.27969 13.247 7.27819H13.2475C13.98 7.27669 14.572 6.68569 14.5705 5.95719C14.569 5.22169 13.9655 4.62519 13.228 4.63019C12.5025 4.63469 11.9225 5.21719 11.92 5.94269Z" fill="#8369FC"/>
</svg>
