<svg width="20" height="20" viewBox="0 0 20 20" fill="none" xmlns="http://www.w3.org/2000/svg">
<path d="M5.30927 17.9723C5.18927 17.9723 5.06927 17.9738 4.94927 17.9718C4.87777 17.9708 4.78977 17.9838 4.77627 17.8823C4.76127 17.7713 4.86277 17.7478 4.93227 17.7353C5.14827 17.6973 5.36827 17.6793 5.58577 17.6488C7.01227 17.4508 8.38877 17.0813 9.66977 16.4098C10.4073 16.0233 11.0823 15.5488 11.5303 14.8183C11.7078 14.5288 11.8703 14.2303 11.9423 13.8933C11.9738 13.7443 12.0558 13.7003 12.2028 13.7318C12.6103 13.8203 12.6288 13.8518 12.4813 14.2713C12.1358 15.2538 11.4668 15.9598 10.5963 16.4973C9.39227 17.2408 8.06727 17.6328 6.68177 17.8478C6.22777 17.9183 5.77077 17.9713 5.30977 17.9723H5.30927Z" fill="#616161"/>
<path d="M15.4592 15.3543C15.5437 15.1758 15.4597 14.9763 15.5277 14.7953C15.5277 14.9818 15.5237 15.1233 15.5207 15.3098C15.5207 15.3363 15.5332 15.2728 15.4652 15.4823C15.4622 15.4913 15.4617 15.3728 15.4587 15.3543H15.4592Z" fill="#616161"/>
<path d="M10.8863 13.7972C10.9078 13.8382 10.8798 13.8982 10.9358 13.9257C10.9098 13.9437 10.8883 13.9867 10.8873 13.9602C10.8833 13.8622 10.8813 13.8997 10.8863 13.7972Z" fill="#616161"/>
<path d="M8.89081 14.4807C8.90181 14.4927 8.91281 14.5047 8.92431 14.5172C8.90881 14.5502 8.89281 14.5827 8.87231 14.6262C8.88281 14.5382 8.88281 14.5532 8.89081 14.4807Z" fill="#616161"/>
<path fill-rule="evenodd" clip-rule="evenodd" d="M15.7731 7.95192C15.7871 7.85584 15.8012 7.75979 15.8535 7.67375L15.8545 7.67325V6.71175C15.8312 6.59201 15.8233 6.47067 15.8155 6.34921C15.8062 6.20694 15.797 6.06451 15.763 5.92425C15.422 4.51675 14.723 3.29225 13.8535 2.15375C13.8045 2.08975 13.75 2.02875 13.654 2.05725C13.224 2.41675 12.7975 2.77975 12.41 3.18575C11.5875 4.04675 10.882 4.98725 10.519 6.13975C10.096 7.48225 10.242 8.71025 11.308 9.72775C11.3927 9.80869 11.3524 9.83452 11.2889 9.87522C11.2853 9.87751 11.2817 9.87985 11.278 9.88225C11.1334 9.97567 10.9898 10.0709 10.8463 10.1661C10.5511 10.362 10.2559 10.5578 9.95149 10.7378C9.69099 10.8918 9.55849 11.0783 9.50399 11.3833C9.36961 12.1317 9.21749 12.8765 9.06534 13.6215C9.00689 13.9076 8.94844 14.1938 8.89099 14.4803C8.88475 14.5313 8.88854 14.5298 8.90614 14.5229C8.91112 14.5209 8.91721 14.5185 8.92449 14.5168C9.06449 14.2438 9.22749 13.9843 9.42249 13.7478C9.91199 13.1543 10.4855 12.6843 11.269 12.5433C11.492 12.5033 11.7185 12.4928 11.937 12.5768C11.6355 12.6138 11.35 12.6973 11.0715 12.8113C10.984 12.8468 10.9345 12.8928 10.932 12.9998C10.9274 13.1887 10.9147 13.3775 10.902 13.5663C10.8968 13.6433 10.8916 13.7202 10.887 13.7973C10.8976 13.8513 10.8933 13.8883 10.8907 13.9107C10.887 13.9425 10.8867 13.9451 10.9365 13.9258C11.9245 13.2943 12.8405 13.4213 13.705 14.2108C13.7199 14.1249 13.7341 14.0407 13.748 13.9577C13.7807 13.7631 13.8123 13.5752 13.8505 13.3888C13.8775 13.2583 13.8345 13.1813 13.7295 13.1063C13.4925 12.9378 13.234 12.8118 12.971 12.6913C13.381 12.6888 13.743 12.8308 14.0625 13.0713C14.827 13.6473 15.2485 14.4373 15.4595 15.3548C15.512 15.4088 15.528 15.3028 15.528 15.2673C15.528 15.1656 15.523 15.0948 15.519 15.037C15.5127 14.9479 15.5086 14.8894 15.528 14.7958C15.5334 14.6145 15.5388 14.4333 15.5442 14.2521C15.5675 13.4668 15.5909 12.6815 15.6185 11.8963C15.623 11.7603 15.592 11.6598 15.4945 11.5598C15.2783 11.3381 15.0652 11.1131 14.8522 10.8881C14.6572 10.6823 14.4623 10.4765 14.265 10.2733C14.168 10.1733 14.152 10.1303 14.2905 10.0513C15.06 9.61175 15.5365 8.94925 15.7485 8.08975C15.7595 8.04455 15.7663 7.99823 15.7731 7.95192ZM11.92 5.94275C11.9175 6.68775 12.505 7.27975 13.247 7.27825H13.2475C13.98 7.27675 14.572 6.68575 14.5705 5.95725C14.569 5.22175 13.9655 4.62525 13.228 4.63025C12.5025 4.63475 11.9225 5.21725 11.92 5.94275Z" fill="#616161"/>
</svg>
