<svg width="20" height="20" viewBox="0 0 20 20" fill="none" xmlns="http://www.w3.org/2000/svg">
<path d="M13.049 8.20087C12.332 8.83735 11.662 9.52287 10.992 10.2074C9.39432 11.8396 7.86172 13.5317 6.37402 15.2641C6.33117 15.3136 6.2873 15.3627 6.24393 15.4117C6.24239 15.4133 6.24135 15.4148 6.24032 15.4164C6.13915 15.547 6.02816 15.6672 5.89292 15.7627C5.88208 15.7705 5.8702 15.7762 5.8573 15.7798C5.51506 15.8789 5.30031 15.7994 5.0577 15.4845C4.67674 14.9884 4.34018 14.4629 4.04336 13.9137C3.35165 12.633 2.73582 11.3151 2.17935 9.9699C2.13341 9.85891 2.10708 9.74019 2.0663 9.62662C2.02604 9.51409 2.06269 9.42685 2.15302 9.36284C2.25265 9.29264 2.34918 9.33342 2.42868 9.40156C2.65839 9.5972 2.88035 9.8011 3.11006 9.99674C4.00723 10.7602 4.85535 11.5763 5.70605 12.3893C5.70966 12.393 5.71379 12.3966 5.71792 12.3997C5.85162 12.4988 5.99358 12.5483 6.15773 12.4725C6.23981 12.3924 6.34098 12.3331 6.40447 12.234C7.03631 11.5505 7.69137 10.8893 8.37792 10.2616C9.39019 9.336 10.4355 8.44916 11.5572 7.65627L11.5856 7.63408C11.6346 7.59072 11.6852 7.54839 11.7405 7.51329C11.7766 7.49057 11.8117 7.46631 11.8473 7.44257C11.9655 7.36152 12.0843 7.27996 12.2025 7.19892C12.2045 7.19737 12.2061 7.19634 12.2081 7.1953C12.3728 7.09671 12.537 6.99811 12.6846 6.87474C12.6867 6.87268 12.6893 6.87113 12.6913 6.86958C13.478 6.3255 14.3014 5.84234 15.1433 5.38962C15.1474 5.38704 15.1521 5.38549 15.1567 5.38395C15.2398 5.35452 15.309 5.29722 15.39 5.26315C15.9831 4.94775 16.6005 4.68449 17.22 4.42536C17.3991 4.35051 17.5818 4.28547 17.7666 4.22559C17.8564 4.19616 17.9509 4.17758 17.9716 4.25398C17.9834 4.29785 17.9602 4.34431 17.9215 4.36909C17.6685 4.53066 17.4166 4.69327 17.1616 4.85174C16.758 5.10262 16.3817 5.39117 15.9981 5.66992C15.8014 5.79794 15.6172 5.94248 15.4427 6.09889L15.1484 6.33015C15.0018 6.43339 14.8821 6.56812 14.7334 6.66826C14.7267 6.67291 14.7205 6.67858 14.7148 6.68426C14.6777 6.72608 14.6333 6.76014 14.5889 6.79421C14.5863 6.79628 14.5842 6.79783 14.5817 6.79989C14.1692 7.17259 13.7568 7.54529 13.3443 7.91902C13.2886 7.96909 13.2359 8.02226 13.1817 8.0744C13.1755 8.08059 13.1704 8.08782 13.1657 8.09453C13.1347 8.13944 13.0774 8.15647 13.048 8.20242L13.049 8.20087Z" fill="#8369FC"/>
</svg>
