<svg width="20" height="20" viewBox="0 0 20 20" fill="none" xmlns="http://www.w3.org/2000/svg">
<path d="M13.049 8.20081C12.332 8.83729 11.662 9.5228 10.992 10.2073C9.39432 11.8395 7.86172 13.5316 6.37402 15.264C6.33117 15.3136 6.2873 15.3626 6.24393 15.4117C6.24239 15.4132 6.24135 15.4148 6.24032 15.4163C6.13915 15.5469 6.02816 15.6672 5.89292 15.7627C5.88208 15.7704 5.8702 15.7761 5.8573 15.7797C5.51506 15.8788 5.30031 15.7993 5.0577 15.4844C4.67674 14.9884 4.34018 14.4629 4.04336 13.9136C3.35165 12.6329 2.73582 11.3151 2.17935 9.96984C2.13341 9.85885 2.10708 9.74013 2.0663 9.62656C2.02604 9.51403 2.06269 9.42679 2.15302 9.36278C2.25265 9.29258 2.34918 9.33336 2.42868 9.4015C2.65839 9.59714 2.88035 9.80104 3.11006 9.99668C4.00723 10.7601 4.85535 11.5763 5.70605 12.3893C5.70966 12.3929 5.71379 12.3965 5.71792 12.3996C5.85162 12.4987 5.99358 12.5483 6.15773 12.4724C6.23981 12.3924 6.34098 12.333 6.40447 12.2339C7.03631 11.5505 7.69137 10.8892 8.37792 10.2615C9.39019 9.33594 10.4355 8.4491 11.5572 7.65621L11.5856 7.63402C11.6346 7.59066 11.6852 7.54833 11.7405 7.51322C11.7766 7.49051 11.8117 7.46625 11.8473 7.4425C11.9655 7.36146 12.0843 7.2799 12.2025 7.19886C12.2045 7.19731 12.2061 7.19628 12.2081 7.19524C12.3728 7.09665 12.537 6.99805 12.6846 6.87468C12.6867 6.87262 12.6893 6.87107 12.6913 6.86952C13.478 6.32544 14.3014 5.84227 15.1433 5.38956C15.1474 5.38698 15.1521 5.38543 15.1567 5.38389C15.2398 5.35446 15.309 5.29716 15.39 5.26309C15.9831 4.94769 16.6005 4.68443 17.22 4.4253C17.3991 4.35045 17.5818 4.2854 17.7666 4.22553C17.8564 4.1961 17.9509 4.17752 17.9716 4.25392C17.9834 4.29779 17.9602 4.34425 17.9215 4.36903C17.6685 4.5306 17.4166 4.69321 17.1616 4.85168C16.758 5.10255 16.3817 5.39111 15.9981 5.66986C15.8014 5.79788 15.6172 5.94242 15.4427 6.09883L15.1484 6.33009C15.0018 6.43333 14.8821 6.56806 14.7334 6.6682C14.7267 6.67285 14.7205 6.67852 14.7148 6.6842C14.6777 6.72601 14.6333 6.76008 14.5889 6.79415C14.5863 6.79622 14.5842 6.79777 14.5817 6.79983C14.1692 7.17253 13.7568 7.54523 13.3443 7.91896C13.2886 7.96903 13.2359 8.0222 13.1817 8.07434C13.1755 8.08053 13.1704 8.08776 13.1657 8.09447C13.1347 8.13938 13.0774 8.15641 13.048 8.20236L13.049 8.20081Z" fill="#616161"/>
</svg>
