<svg width="20" height="20" viewBox="0 0 20 20" fill="none" xmlns="http://www.w3.org/2000/svg">
<path d="M6.27604 2.786C6.42604 2.783 6.47654 2.8645 6.47354 3.005C6.46904 3.2355 6.46604 3.4665 6.47454 3.697C6.48104 3.875 6.40254 3.9375 6.23154 3.936C5.66204 3.9315 5.09254 3.9345 4.52304 3.936C4.26054 3.9365 4.18604 4.011 4.18554 4.274C4.18454 4.8845 4.18554 5.495 4.18504 6.1055C4.18504 6.461 4.14554 6.4985 3.78954 6.4985C3.65404 6.4985 3.51754 6.489 3.38304 6.501C3.23254 6.514 3.11854 6.477 3.05054 6.335V3.9315C3.11454 3.4955 3.30654 3.144 3.69354 2.9075C3.86254 2.8045 4.05004 2.794 4.23154 2.75H4.27204C4.41754 2.794 4.56704 2.7665 4.71454 2.77C5.23504 2.782 5.75604 2.7525 6.27604 2.7865V2.786Z" fill="#8369FC"/>
<path d="M3.05005 14.6865C3.12305 14.5585 3.22505 14.5065 3.37855 14.5195C3.56005 14.535 3.74455 14.528 3.92755 14.5215C4.06705 14.517 4.13655 14.568 4.15855 14.713C4.20955 15.051 4.17505 15.39 4.18405 15.728C4.19105 15.992 4.26005 16.0665 4.52255 16.067C5.08555 16.068 5.64805 16.073 6.21105 16.065C6.40355 16.0625 6.48255 16.133 6.47455 16.3265C6.46505 16.557 6.47055 16.7875 6.47305 17.0185C6.47405 17.13 6.43205 17.2 6.31605 17.2165C6.28255 17.221 6.25055 17.242 6.21805 17.242C5.54755 17.243 4.87505 17.2915 4.20705 17.2205C3.60505 17.1565 3.13055 16.6225 3.07955 16.1235C3.07755 16.1055 3.06005 16.0885 3.05005 16.0715C3.05005 15.61 3.05005 15.148 3.05005 14.6865Z" fill="#8369FC"/>
<path d="M15.9181 2.75C16.0191 2.7815 16.1211 2.81 16.2201 2.8455C16.7086 3.0205 16.9766 3.401 16.9766 3.9155C16.9766 4.6 16.9776 5.2845 16.9766 5.969C16.9761 6.3365 16.9341 6.377 16.5736 6.377C16.4991 6.377 16.4246 6.377 16.3501 6.377C16.0036 6.377 15.9881 6.367 15.9846 6.0105C15.9796 5.448 15.9836 4.8855 15.9831 4.323C15.9826 3.9995 15.9161 3.9355 15.5876 3.9355C15.2081 3.9355 14.8291 3.937 14.4496 3.9345C14.1866 3.933 14.1681 3.9125 14.1671 3.6585C14.1666 3.4415 14.1706 3.2245 14.1656 3.008C14.1621 2.8675 14.2126 2.7865 14.3611 2.7855C14.7931 2.7525 15.2261 2.7805 15.6586 2.77C15.7316 2.768 15.8076 2.79 15.8776 2.75C15.8911 2.75 15.9046 2.75 15.9181 2.75Z" fill="#8369FC"/>
<path d="M16.977 15.6215C16.977 15.815 16.963 15.959 16.9795 16.0995C17.042 16.6325 16.718 16.9085 16.3065 17.121C16.138 17.208 15.949 17.247 15.757 17.2485C15.4045 17.251 15.0525 17.253 14.7 17.2485C14.424 17.245 14.371 17.186 14.3705 16.911C14.3705 16.735 14.3685 16.5585 14.3705 16.3825C14.374 16.133 14.4375 16.069 14.6805 16.068C15.0055 16.0665 15.331 16.069 15.656 16.067C15.8915 16.0655 15.975 15.986 15.981 15.752C15.9885 15.4405 15.9935 15.129 15.994 14.817C15.994 14.662 16.063 14.596 16.2175 14.6015C16.3865 14.6075 16.5565 14.6065 16.7255 14.6015C16.855 14.598 16.9195 14.647 16.947 14.781C17.008 15.078 16.953 15.376 16.976 15.6215H16.977Z" fill="#8369FC"/>
</svg>
